<?xml version="1.0" encoding="UTF-8" standalone="no"?>
<!-- Created with Inkscape (http://www.inkscape.org/) -->

<svg
   width="210mm"
   height="297mm"
   viewBox="0 0 210 297"
   version="1.1"
   id="svg5"
   inkscape:version="1.1.1 (3bf5ae0d25, 2021-09-20, custom)"
   sodipodi:docname="body.svg"
   inkscape:export-filename="/media/Denis/Мои файлы/Documents/Massaж/img/face.png"
   inkscape:export-xdpi="96"
   inkscape:export-ydpi="96"
   xmlns:inkscape="http://www.inkscape.org/namespaces/inkscape"
   xmlns:sodipodi="http://sodipodi.sourceforge.net/DTD/sodipodi-0.dtd"
   xmlns="http://www.w3.org/2000/svg"
   xmlns:svg="http://www.w3.org/2000/svg">
  <sodipodi:namedview
     id="namedview7"
     pagecolor="#505050"
     bordercolor="#eeeeee"
     borderopacity="1"
     inkscape:pageshadow="0"
     inkscape:pageopacity="0"
     inkscape:pagecheckerboard="0"
     inkscape:document-units="mm"
     showgrid="false"
     inkscape:snap-bbox="true"
     inkscape:bbox-paths="true"
     inkscape:bbox-nodes="true"
     inkscape:snap-bbox-edge-midpoints="true"
     inkscape:snap-bbox-midpoints="true"
     inkscape:object-paths="true"
     inkscape:snap-intersection-paths="true"
     inkscape:snap-smooth-nodes="true"
     inkscape:snap-midpoints="true"
     inkscape:snap-global="false"
     inkscape:zoom="0.12316042"
     inkscape:cx="125.85212"
     inkscape:cy="1242.2822"
     inkscape:window-width="1328"
     inkscape:window-height="739"
     inkscape:window-x="0"
     inkscape:window-y="0"
     inkscape:window-maximized="1"
     inkscape:current-layer="layer1" />
  <defs
     id="defs2" />
  <g
     inkscape:label="Слой 1"
     inkscape:groupmode="layer"
     id="layer1">
    <path
       style="fill:#ffffff;fill-opacity:1;stroke:none;stroke-width:0.720911;stroke-linecap:round;stroke-linejoin:round;stroke-miterlimit:4;stroke-dasharray:none;stroke-opacity:1"
       d="M 197.11628,123.34009 V 46.686995 c 0,0 -94.18009,41.177626 -108.187289,56.927085 -8.053692,9.05543 -3.99548,29.22897 11.549999,28.39362 15.5455,-0.83534 64.17242,-11.73034 96.63729,-8.66761 z"
       id="path918"
       sodipodi:nodetypes="ccssc" />
    <path
       style="fill:#ffffff;fill-opacity:1;stroke:none;stroke-width:0.720911;stroke-linecap:round;stroke-linejoin:round;stroke-miterlimit:4;stroke-dasharray:none;stroke-opacity:1"
       d="m 197.11629,210.59743 -19.11678,-14.28152 c 0,0 -30.02672,5.98644 -27.99567,31.53101 0,0 37.39572,41.80931 47.11244,50.22313 z"
       id="path3366" />
    <g
       id="g26446"
       style="stroke-width:1.2;stroke-miterlimit:4;stroke-dasharray:none">
      <path
         style="fill:none;stroke:#ffffff;stroke-width:1.2;stroke-linecap:round;stroke-linejoin:round;stroke-opacity:1;stroke-miterlimit:4;stroke-dasharray:none"
         d="m 144.80664,19.444517 c 0,0 11.69927,11.352753 11.81629,23.670295"
         id="path916"
         sodipodi:nodetypes="cc" />
      <path
         style="fill:none;stroke:#ffffff;stroke-width:1.2;stroke-linecap:round;stroke-linejoin:round;stroke-opacity:1;stroke-miterlimit:4;stroke-dasharray:none"
         d="m 149.29992,44.894374 c 0,0 7.23914,-0.504773 10.28795,-3.79055 3.04881,-3.285777 8.20108,-3.785899 10.79597,3.204354 2.59488,6.990227 -0.17952,14.552095 -0.17952,14.552095"
         id="path1270" />
      <path
         style="fill:none;stroke:#ffffff;stroke-width:1.2;stroke-linecap:round;stroke-linejoin:round;stroke-opacity:1;stroke-miterlimit:4;stroke-dasharray:none"
         d="m 158.43104,49.454695 c 0,0 0.27654,2.891914 -0.29154,4.374244 -0.56808,1.482329 -3.97978,2.36807 -3.17376,4.044121 0.80601,1.67605 4.61587,-0.565521 6.01773,0.05359 1.40186,0.619113 1.03663,2.49506 2.16073,2.329005 1.1241,-0.165945 1.2567,-1.612882 1.59868,-3.271059 0.34199,-1.658177 0.32119,-4.871754 -0.3115,-6.510154 -0.6327,-1.6384 -2.21041,-2.125518 -2.55669,-3.102557 -0.34627,-0.977038 0.0177,-2.199214 0.0177,-2.199214"
         id="path1592"
         sodipodi:nodetypes="czzzzzzzc" />
      <path
         style="fill:none;stroke:#ffffff;stroke-width:1.2;stroke-linecap:round;stroke-linejoin:round;stroke-opacity:1;stroke-miterlimit:4;stroke-dasharray:none"
         d="m 115.57392,26.939865 c 0,0 1.41234,3.886677 7.3671,3.807622"
         id="path1800" />
      <path
         style="fill:none;stroke:#ffffff;stroke-width:1.2;stroke-linecap:round;stroke-linejoin:round;stroke-opacity:1;stroke-miterlimit:4;stroke-dasharray:none"
         d="m 116.95012,19.289837 c 0,0 -4.55452,7.289222 -7.04857,10.345406 -2.49406,3.056174 -7.48241,4.87676 -7.73859,8.442114 -0.25626,3.565355 5.93065,5.373372 6.38496,7.88032 0.45431,2.506948 -1.98531,2.894935 -1.78125,5.408602 0.20403,2.513668 4.32199,8.629007 4.32199,8.629007"
         id="path1868"
         sodipodi:nodetypes="czzzzc" />
      <path
         style="fill:none;stroke:#ffffff;stroke-width:1.2;stroke-linecap:round;stroke-linejoin:round;stroke-opacity:1;stroke-miterlimit:4;stroke-dasharray:none"
         d="m 107.72586,54.204003 c 0,0 -2.13629,1.646534 -2.22816,3.613451 -0.0919,1.966918 2.58631,3.69199 3.35499,6.785025 0.76868,3.093035 -1.80943,8.773189 0.76101,12.435282 2.57044,3.662119 13.79211,4.711004 13.79211,4.711004"
         id="path2672"
         sodipodi:nodetypes="czzzc" />
      <path
         style="fill:none;stroke:#ffffff;stroke-width:1.2;stroke-linecap:round;stroke-linejoin:round;stroke-opacity:1;stroke-miterlimit:4;stroke-dasharray:none"
         d="m 90.644814,101.9077 c 0,0 -35.218603,17.79807 -42.62693,24.772 -7.408327,6.97393 -4.896428,7.42073 -6.503108,9.77966 -1.60668,2.35893 -2.45039,2.72227 -3.077964,4.41279 -0.627573,1.69053 0.05849,3.54422 -0.553143,5.41119 -0.611577,1.86697 -2.758015,2.9232 -3.216052,5.47327 -0.458037,2.55006 1.385128,6.59848 1.608556,9.05532 0.223347,2.45684 -0.546994,4.15998 0.03128,5.60461 0.57828,1.44462 1.306862,2.78228 2.559888,2.71528 1.253025,-0.0669 0.620582,-1.20191 2.295299,-3.02492 1.674717,-1.82301 5.253565,-7.69626 8.210062,-7.40444 2.956497,0.29182 3.180633,2.52926 4.043631,5.42903 0.862999,2.89978 -0.386054,7.52245 -0.701405,11.36178 -0.315351,3.83933 -2.112596,8.54925 -0.955058,12.37209 1.157511,3.82287 6.721367,3.60964 8.213517,0.20076 1.49215,-3.40895 2.683912,-6.07597 3.299896,-8.91688 0.615985,-2.8409 -0.357599,-4.41807 0.565276,-8.20353 0.922875,-3.78546 4.287626,-8.6552 6.033536,-13.90227 1.745911,-5.24706 0.343943,-12.45693 4.161235,-17.53743 3.817293,-5.08049 17.496459,-9.90243 17.496459,-9.90243"
         id="path3710"
         sodipodi:nodetypes="czzzzzzzzzzzzzzzzzzc" />
      <path
         style="fill:none;stroke:#ffffff;stroke-width:1.2;stroke-linecap:round;stroke-linejoin:round;stroke-opacity:1;stroke-miterlimit:4;stroke-dasharray:none"
         d="m 68.472826,113.68532 c 0,0 6.212811,-19.308178 29.146001,-17.052298"
         id="path4716" />
      <path
         style="fill:none;stroke:#ffffff;stroke-width:1.2;stroke-linecap:round;stroke-linejoin:round;stroke-opacity:1;stroke-miterlimit:4;stroke-dasharray:none"
         d="m 164.05796,201.98719 c 0,0 -26.76815,-26.33257 -33.19619,-33.69974 -6.42803,-7.36717 -3.87631,-6.5688 -6.93769,-8.99506 -3.06138,-2.42626 -7.84147,-2.89184 -10.99569,-4.99684 -3.15421,-2.10501 -5.33221,-5.08308 -7.80757,-7.27976 -2.47537,-2.19669 -5.17813,-4.062 -7.015691,-5.92388 -1.837562,-1.86188 -2.115589,-4.90252 -4.136425,-5.03152 -2.020836,-0.12895 -3.302507,1.38115 -4.103834,3.86337 -0.801327,2.48222 -0.03265,5.99518 1.901464,9.83182 1.934191,3.83663 9.400896,5.48295 10.502536,10.85297 0.30846,1.50366 -1.56427,2.38461 -3.160097,3.19358 -4.621666,2.3428 -12.675413,3.37789 -15.446323,4.8072 -3.727709,1.92285 -3.08482,1.19601 -4.212597,2.78528 -1.127777,1.58927 -1.94733,4.76334 -1.628524,6.43958 0.318806,1.67624 0.808046,2.249 2.099565,2.91871 1.291519,0.66972 5.133377,0.049 5.133377,0.049"
         id="path4784"
         sodipodi:nodetypes="czzzzzzzzssszzzc" />
      <path
         style="fill:none;stroke:#ffffff;stroke-width:1.2;stroke-linecap:round;stroke-linejoin:round;stroke-opacity:1;stroke-miterlimit:4;stroke-dasharray:none"
         d="m 149.91731,224.56422 c 0,0 -2.19636,-2.94983 -6.82067,-5.92929 -4.62431,-2.97946 -14.88871,-8.75121 -21.79545,-9.97273 -6.90674,-1.22152 -12.27216,2.0133 -18.05836,1.42999 -5.786195,-0.58331 -13.285194,-1.87045 -16.124958,-4.63617 -2.839764,-2.76571 -3.50779,-3.30501 -2.113031,-6.67955"
         id="path5388"
         sodipodi:nodetypes="czzzzc" />
      <path
         style="fill:none;stroke:#ffffff;stroke-width:1.2;stroke-linecap:round;stroke-linejoin:round;stroke-opacity:1;stroke-miterlimit:4;stroke-dasharray:none"
         d="m 86.35104,191.15089 c 0,0 -1.56979,-1.70652 -2.4752,-1.46919 -0.90541,0.23722 -1.119344,1.23409 -1.365896,2.37245 -0.24647,1.13836 -0.07644,3.07837 0.406594,4.23148 0.483119,1.1531 0.902363,1.7933 2.088303,2.49084 1.185939,0.69754 3.777656,0.37618 4.91441,0.94657 1.136754,0.57039 1.939659,1.77058 1.939659,1.77058"
         id="path5594"
         sodipodi:nodetypes="czzzzzc" />
      <path
         style="fill:none;stroke:#ffffff;stroke-width:1.2;stroke-linecap:round;stroke-linejoin:round;stroke-opacity:1;stroke-miterlimit:4;stroke-dasharray:none"
         d="m 78.720727,179.92415 c 0,0 -5.477347,9.96651 3.789217,12.13"
         id="path5766" />
      <path
         style="fill:none;stroke:#ffffff;stroke-width:1.2;stroke-linecap:round;stroke-linejoin:round;stroke-opacity:1;stroke-miterlimit:4;stroke-dasharray:none"
         d="m 87.117872,205.45602 c -2.967433,14.28865 5.298098,24.23959 7.990361,40.15753 2.692263,15.91793 1.059087,25.7023 1.059087,25.7023"
         id="path5947"
         sodipodi:nodetypes="czc" />
      <path
         style="fill:none;stroke:#ffffff;stroke-width:1.2;stroke-linecap:round;stroke-linejoin:round;stroke-opacity:1;stroke-miterlimit:4;stroke-dasharray:none"
         d="m 78.709927,190.12197 c 0,0 -16.747065,54.87266 -31.65401,80.03139"
         id="path6603" />
      <path
         style="fill:none;stroke:#ffffff;stroke-width:1.2;stroke-linecap:round;stroke-linejoin:round;stroke-opacity:1;stroke-miterlimit:4;stroke-dasharray:none"
         d="m 38.867346,169.13182 c 0,0 -23.837239,77.249 -25.623739,101.16665"
         id="path6671" />
    </g>
    <path
       style="fill:#ffffff;fill-opacity:1;stroke:none;stroke-width:0.719777px;stroke-linecap:butt;stroke-linejoin:miter;stroke-opacity:1"
       d="m 52.275476,188.95943 c 0,0 -1.063548,-4.57667 1.150982,-6.60842 2.214558,-2.03174 4.629148,-2.02861 5.403134,0.34843 0.773959,2.37708 -0.264425,7.35855 -1.275795,7.63551 -1.01137,0.27697 -1.221768,0.30684 -1.221768,0.30684 l -1.023938,0.0163 -0.990206,-0.19777 -1.365596,-0.74779 z"
       id="path6932" />
    <path
       style="fill:#ffffff;fill-opacity:1;stroke:none;stroke-width:0.719777px;stroke-linecap:butt;stroke-linejoin:miter;stroke-opacity:1"
       d="m 97.419638,140.25707 c 0,0 1.18428,2.82173 -1.858373,2.7702 -3.04268,-0.0514 -5.568807,-2.5888 -4.750723,-5.19788 l 0.458663,-0.61345 0.891536,-0.74904 0.898636,-0.34631 0.909327,-0.0601 1.070376,0.42634 0.764057,0.91893 0.736771,1.34503 z"
       id="path25990" />
  </g>
</svg>
