<?xml version="1.0" encoding="UTF-8" standalone="no"?>
<!-- Created with Inkscape (http://www.inkscape.org/) -->

<svg
   width="210mm"
   height="297mm"
   viewBox="0 0 210 297"
   version="1.1"
   id="svg5"
   inkscape:version="1.1.1 (3bf5ae0d25, 2021-09-20)"
   sodipodi:docname="face.svg"
   inkscape:export-filename="/media/Denis/Мои файлы/Documents/Massaж/img/face.png"
   inkscape:export-xdpi="96"
   inkscape:export-ydpi="96"
   xmlns:inkscape="http://www.inkscape.org/namespaces/inkscape"
   xmlns:sodipodi="http://sodipodi.sourceforge.net/DTD/sodipodi-0.dtd"
   xmlns="http://www.w3.org/2000/svg"
   xmlns:svg="http://www.w3.org/2000/svg">
  <sodipodi:namedview
     id="namedview7"
     pagecolor="#505050"
     bordercolor="#eeeeee"
     borderopacity="1"
     inkscape:pageshadow="0"
     inkscape:pageopacity="0"
     inkscape:pagecheckerboard="0"
     inkscape:document-units="mm"
     showgrid="false"
     inkscape:snap-bbox="true"
     inkscape:bbox-paths="true"
     inkscape:bbox-nodes="true"
     inkscape:snap-bbox-edge-midpoints="true"
     inkscape:snap-bbox-midpoints="true"
     inkscape:object-paths="true"
     inkscape:snap-intersection-paths="true"
     inkscape:snap-smooth-nodes="true"
     inkscape:snap-midpoints="true"
     inkscape:snap-global="false"
     inkscape:zoom="0.24632084"
     inkscape:cx="205.01716"
     inkscape:cy="503.40848"
     inkscape:window-width="1328"
     inkscape:window-height="739"
     inkscape:window-x="0"
     inkscape:window-y="0"
     inkscape:window-maximized="1"
     inkscape:current-layer="layer1" />
  <defs
     id="defs2" />
  <g
     inkscape:label="Слой 1"
     inkscape:groupmode="layer"
     id="layer1">
    <g
       id="g11956"
       transform="matrix(2.881145,0,0,2.881145,-1136.4228,-159.79688)"
       style="stroke-width:0.416501;stroke-miterlimit:4;stroke-dasharray:none">
      <path
         style="fill:none;stroke:#f9f9ff;stroke-width:0.416501;stroke-linecap:round;stroke-linejoin:round;stroke-miterlimit:4;stroke-dasharray:none;stroke-opacity:1"
         d="m 428.19968,103.81567 c 4.28702,10.10587 -4.03465,9.99218 0.38854,12.83373"
         id="path869"
         sodipodi:nodetypes="cc" />
      <g
         id="g2235"
         transform="matrix(-1,0,0,1,861.72312,0)"
         style="stroke-width:0.416501;stroke-miterlimit:4;stroke-dasharray:none">
        <path
           style="fill:none;stroke:#f9f9ff;stroke-width:0.416501;stroke-linecap:butt;stroke-linejoin:miter;stroke-miterlimit:4;stroke-dasharray:none;stroke-opacity:1"
           d="m 426.33865,105.03598 c 0,0 -7.08686,2.47562 -9.27052,-2.17651"
           id="path2223" />
        <path
           style="fill:none;stroke:#f9f9ff;stroke-width:0.416501;stroke-linecap:butt;stroke-linejoin:miter;stroke-miterlimit:4;stroke-dasharray:none;stroke-opacity:1"
           d="m 423.10012,105.66664 0.0895,0.93579"
           id="path2225" />
        <path
           style="fill:none;stroke:#f9f9ff;stroke-width:0.416501;stroke-linecap:butt;stroke-linejoin:miter;stroke-miterlimit:4;stroke-dasharray:none;stroke-opacity:1"
           d="m 421.66002,105.67109 -0.072,1.19379"
           id="path2227" />
        <path
           style="fill:none;stroke:#f9f9ff;stroke-width:0.416501;stroke-linecap:butt;stroke-linejoin:miter;stroke-miterlimit:4;stroke-dasharray:none;stroke-opacity:1"
           d="m 420.35261,105.4697 -0.46365,1.31772"
           id="path2229" />
        <path
           style="fill:none;stroke:#f9f9ff;stroke-width:0.416501;stroke-linecap:butt;stroke-linejoin:miter;stroke-miterlimit:4;stroke-dasharray:none;stroke-opacity:1"
           d="m 418.98302,104.93711 -0.8864,1.21603"
           id="path2231" />
        <path
           style="fill:none;stroke:#f9f9ff;stroke-width:0.416501;stroke-linecap:butt;stroke-linejoin:miter;stroke-miterlimit:4;stroke-dasharray:none;stroke-opacity:1"
           d="m 417.87579,104.06984 -1.6339,1.33826"
           id="path2233" />
      </g>
      <path
         style="fill:#ffffff;fill-opacity:1;stroke:none;stroke-width:0.416501;stroke-linecap:butt;stroke-linejoin:miter;stroke-miterlimit:4;stroke-dasharray:none;stroke-opacity:1"
         d="m 445.17609,98.526006 c -4.60044,-2.620505 -11.88377,-0.843368 -10.66214,1.186769 0.91228,1.516045 4.24666,-2.979096 10.66214,-1.186769 z"
         id="path3207"
         sodipodi:nodetypes="csc" />
      <g
         id="g7864"
         style="stroke-width:0.416501;stroke-miterlimit:4;stroke-dasharray:none">
        <path
           style="fill:#ffffff;fill-opacity:1;stroke:none;stroke-width:0.416501;stroke-linecap:butt;stroke-linejoin:miter;stroke-miterlimit:4;stroke-dasharray:none;stroke-opacity:1"
           d="m 416.48448,98.526006 c 4.60044,-2.620505 11.88377,-0.843368 10.66214,1.186769 -0.91228,1.516045 -4.24666,-2.979096 -10.66214,-1.186769 z"
           id="path2270"
           sodipodi:nodetypes="csc" />
        <g
           id="g7846"
           style="stroke-width:0.416501;stroke-miterlimit:4;stroke-dasharray:none">
          <path
             style="fill:#ffffff;fill-opacity:1;stroke:none;stroke-width:0.416501;stroke-linecap:butt;stroke-linejoin:miter;stroke-miterlimit:4;stroke-dasharray:none;stroke-opacity:1"
             d="m 413.74204,115.33493 c 0,0 -0.2121,-2.61846 1.54902,-1.95049 1.76112,0.66796 2.60376,3.16726 1.33257,3.42686 -1.40556,0.28705 -1.89883,-0.42723 -1.89883,-0.42723 z"
             id="path6980"
             sodipodi:nodetypes="czscc" />
          <g
             id="g4712"
             style="stroke:#ffffff;stroke-width:0.416501;stroke-linecap:round;stroke-linejoin:round;stroke-miterlimit:4;stroke-dasharray:none;stroke-opacity:1">
            <path
               style="fill:none;stroke:#ffffff;stroke-width:0.416501;stroke-linecap:round;stroke-linejoin:round;stroke-miterlimit:4;stroke-dasharray:none;stroke-opacity:1"
               d="m 426.33865,105.03598 c 0,0 -7.08686,2.47562 -9.27052,-2.17651"
               id="path1763" />
            <path
               style="fill:none;stroke:#ffffff;stroke-width:0.416501;stroke-linecap:round;stroke-linejoin:round;stroke-miterlimit:4;stroke-dasharray:none;stroke-opacity:1"
               d="m 423.10012,105.66664 0.0895,0.93579"
               id="path1765" />
            <path
               style="fill:none;stroke:#ffffff;stroke-width:0.416501;stroke-linecap:round;stroke-linejoin:round;stroke-miterlimit:4;stroke-dasharray:none;stroke-opacity:1"
               d="m 421.66002,105.67109 -0.072,1.19379"
               id="path1767" />
            <path
               style="fill:none;stroke:#ffffff;stroke-width:0.416501;stroke-linecap:round;stroke-linejoin:round;stroke-miterlimit:4;stroke-dasharray:none;stroke-opacity:1"
               d="m 420.35261,105.4697 -0.46365,1.31772"
               id="path1769" />
            <path
               style="fill:none;stroke:#ffffff;stroke-width:0.416501;stroke-linecap:round;stroke-linejoin:round;stroke-miterlimit:4;stroke-dasharray:none;stroke-opacity:1"
               d="m 418.98302,104.93711 -0.8864,1.21603"
               id="path1771" />
            <path
               style="fill:none;stroke:#ffffff;stroke-width:0.416501;stroke-linecap:round;stroke-linejoin:round;stroke-miterlimit:4;stroke-dasharray:none;stroke-opacity:1"
               d="m 417.87579,104.06984 -1.6339,1.33826"
               id="path1773" />
            <path
               style="fill:none;stroke:#ffffff;stroke-width:0.416501;stroke-linecap:round;stroke-linejoin:round;stroke-miterlimit:4;stroke-dasharray:none;stroke-opacity:1"
               d="m 414.89772,67.900613 c 0,0 -2.99482,24.456487 -5.08352,27.684499"
               id="path3244" />
            <path
               style="fill:none;stroke:#ffffff;stroke-width:0.416501;stroke-linecap:round;stroke-linejoin:round;stroke-miterlimit:4;stroke-dasharray:none;stroke-opacity:1"
               d="m 405.06194,89.711494 c 0,0 0.73541,2.570827 3.34632,4.5646 2.61088,1.993773 5.31979,8.038166 5.22483,10.886406 -0.0949,2.84825 5.67704,9.41079 3.54084,11.35709 -2.13616,1.9463 -4.00007,-1.3524 -5.37673,-3.67847 -1.37665,-2.32607 -3.86881,-6.59072 -5.67269,-6.92302"
               id="path3246" />
            <path
               style="fill:none;stroke:#ffffff;stroke-width:0.416501;stroke-linecap:round;stroke-linejoin:round;stroke-miterlimit:4;stroke-dasharray:none;stroke-opacity:1"
               d="m 413.66133,115.69159 c 0,0 7.23188,14.99094 12.88325,17.83873 1.77138,0.89262 0.93276,2.30598 -0.39475,2.42246 -1.59995,0.14037 -2.966,-0.74819 -5.4185,-3.18402 -2.45249,-2.43584 -7.17413,-6.19385 -7.74477,-8.40109"
               id="path3248"
               sodipodi:nodetypes="csszc" />
            <path
               style="fill:none;stroke:#ffffff;stroke-width:0.416501;stroke-linecap:round;stroke-linejoin:round;stroke-miterlimit:4;stroke-dasharray:none;stroke-opacity:1"
               d="m 397.59821,67.771083 c 0,0 2.63416,15.708553 2.09708,24.301683 -0.53705,8.593124 5.77387,21.025024 7.0081,24.253034 1.23426,3.22801 5.50662,8.25991 6.45602,10.34863 0.94943,2.08872 3.19072,5.07136 7.57193,6.09433"
               id="path4498" />
            <path
               style="fill:none;stroke:#ffffff;stroke-width:0.416501;stroke-linecap:round;stroke-linejoin:round;stroke-miterlimit:4;stroke-dasharray:none;stroke-opacity:1"
               d="m 420.73134,132.76876 c 0,0 0.0425,13.78137 -23.24251,13.46477"
               id="path4613" />
          </g>
          <path
             style="fill:#ffffff;fill-opacity:1;stroke:none;stroke-width:0.416501;stroke-linecap:butt;stroke-linejoin:miter;stroke-miterlimit:4;stroke-dasharray:none;stroke-opacity:1"
             d="m 423.15911,135.1405 c 0,0 -0.7817,-1.48563 0.86908,-1.33426 1.65078,0.15137 2.34319,1.96795 1.45798,2.14872 -0.97878,0.1999 -1.32227,-0.2975 -1.32227,-0.2975 z"
             id="path7617"
             sodipodi:nodetypes="czscc" />
        </g>
      </g>
      <g
         id="g7898"
         transform="matrix(-1,0,0,1,861.75655,0)"
         style="stroke-width:0.416501;stroke-miterlimit:4;stroke-dasharray:none">
        <path
           style="fill:#ffffff;fill-opacity:1;stroke:none;stroke-width:0.416501;stroke-linecap:butt;stroke-linejoin:miter;stroke-miterlimit:4;stroke-dasharray:none;stroke-opacity:1"
           d="m 416.48448,98.526006 c 4.60044,-2.620505 11.88377,-0.843368 10.66214,1.186769 -0.91228,1.516045 -4.24666,-2.979096 -10.66214,-1.186769 z"
           id="path7866"
           sodipodi:nodetypes="csc" />
        <g
           id="g7896"
           style="stroke-width:0.416501;stroke-miterlimit:4;stroke-dasharray:none">
          <path
             style="fill:#ffffff;fill-opacity:1;stroke:none;stroke-width:0.416501;stroke-linecap:butt;stroke-linejoin:miter;stroke-miterlimit:4;stroke-dasharray:none;stroke-opacity:1"
             d="m 413.74204,115.33493 c 0,0 -0.2121,-2.61846 1.54902,-1.95049 1.76112,0.66796 2.60376,3.16726 1.33257,3.42686 -1.40556,0.28705 -1.89883,-0.42723 -1.89883,-0.42723 z"
             id="path7868"
             sodipodi:nodetypes="czscc" />
          <g
             id="g7892"
             style="stroke:#ffffff;stroke-width:0.416501;stroke-linecap:round;stroke-linejoin:round;stroke-miterlimit:4;stroke-dasharray:none;stroke-opacity:1">
            <path
               style="fill:none;stroke:#ffffff;stroke-width:0.416501;stroke-linecap:round;stroke-linejoin:round;stroke-miterlimit:4;stroke-dasharray:none;stroke-opacity:1"
               d="m 426.33865,105.03598 c 0,0 -7.08686,2.47562 -9.27052,-2.17651"
               id="path7870" />
            <path
               style="fill:none;stroke:#ffffff;stroke-width:0.416501;stroke-linecap:round;stroke-linejoin:round;stroke-miterlimit:4;stroke-dasharray:none;stroke-opacity:1"
               d="m 423.10012,105.66664 0.0895,0.93579"
               id="path7872" />
            <path
               style="fill:none;stroke:#ffffff;stroke-width:0.416501;stroke-linecap:round;stroke-linejoin:round;stroke-miterlimit:4;stroke-dasharray:none;stroke-opacity:1"
               d="m 421.66002,105.67109 -0.072,1.19379"
               id="path7874" />
            <path
               style="fill:none;stroke:#ffffff;stroke-width:0.416501;stroke-linecap:round;stroke-linejoin:round;stroke-miterlimit:4;stroke-dasharray:none;stroke-opacity:1"
               d="m 420.35261,105.4697 -0.46365,1.31772"
               id="path7876" />
            <path
               style="fill:none;stroke:#ffffff;stroke-width:0.416501;stroke-linecap:round;stroke-linejoin:round;stroke-miterlimit:4;stroke-dasharray:none;stroke-opacity:1"
               d="m 418.98302,104.93711 -0.8864,1.21603"
               id="path7878" />
            <path
               style="fill:none;stroke:#ffffff;stroke-width:0.416501;stroke-linecap:round;stroke-linejoin:round;stroke-miterlimit:4;stroke-dasharray:none;stroke-opacity:1"
               d="m 417.87579,104.06984 -1.6339,1.33826"
               id="path7880" />
            <path
               style="fill:none;stroke:#ffffff;stroke-width:0.416501;stroke-linecap:round;stroke-linejoin:round;stroke-miterlimit:4;stroke-dasharray:none;stroke-opacity:1"
               d="m 414.89772,67.900613 c 0,0 -2.99482,24.456487 -5.08352,27.684499"
               id="path7882" />
            <path
               style="fill:none;stroke:#ffffff;stroke-width:0.416501;stroke-linecap:round;stroke-linejoin:round;stroke-miterlimit:4;stroke-dasharray:none;stroke-opacity:1"
               d="m 405.06194,89.711494 c 0,0 0.73541,2.570827 3.34632,4.5646 2.61088,1.993773 5.31979,8.038166 5.22483,10.886406 -0.0949,2.84825 5.67704,9.41079 3.54084,11.35709 -2.13616,1.9463 -4.00007,-1.3524 -5.37673,-3.67847 -1.37665,-2.32607 -3.86881,-6.59072 -5.67269,-6.92302"
               id="path7884" />
            <path
               style="fill:none;stroke:#ffffff;stroke-width:0.416501;stroke-linecap:round;stroke-linejoin:round;stroke-miterlimit:4;stroke-dasharray:none;stroke-opacity:1"
               d="m 413.66133,115.69159 c 0,0 7.23188,14.99094 12.88325,17.83873 1.77138,0.89262 0.93276,2.30598 -0.39475,2.42246 -1.59995,0.14037 -2.966,-0.74819 -5.4185,-3.18402 -2.45249,-2.43584 -7.17413,-6.19385 -7.74477,-8.40109"
               id="path7886"
               sodipodi:nodetypes="csszc" />
            <path
               style="fill:none;stroke:#ffffff;stroke-width:0.416501;stroke-linecap:round;stroke-linejoin:round;stroke-miterlimit:4;stroke-dasharray:none;stroke-opacity:1"
               d="m 397.59821,67.771083 c 0,0 2.63416,15.708553 2.09708,24.301683 -0.53705,8.593124 5.77387,21.025024 7.0081,24.253034 1.23426,3.22801 5.50662,8.25991 6.45602,10.34863 0.94943,2.08872 3.19072,5.07136 7.57193,6.09433"
               id="path7888" />
            <path
               style="fill:none;stroke:#ffffff;stroke-width:0.416501;stroke-linecap:round;stroke-linejoin:round;stroke-miterlimit:4;stroke-dasharray:none;stroke-opacity:1"
               d="m 420.73134,132.76876 c 0,0 0.0425,13.78137 -23.24251,13.46477"
               id="path7890" />
          </g>
          <path
             style="fill:#ffffff;fill-opacity:1;stroke:none;stroke-width:0.416501;stroke-linecap:butt;stroke-linejoin:miter;stroke-miterlimit:4;stroke-dasharray:none;stroke-opacity:1"
             d="m 423.15911,135.1405 c 0,0 -0.7817,-1.48563 0.86908,-1.33426 1.65078,0.15137 2.34319,1.96795 1.45798,2.14872 -0.97878,0.1999 -1.32227,-0.2975 -1.32227,-0.2975 z"
             id="path7894"
             sodipodi:nodetypes="czscc" />
        </g>
      </g>
      <circle
         style="fill:#ffffff;fill-opacity:1;stroke:none;stroke-width:0.416501;stroke-linecap:round;stroke-linejoin:round;stroke-miterlimit:4;stroke-dasharray:none;stroke-opacity:1"
         id="path7922"
         cx="433.07034"
         cy="116.05949"
         r="0.47937685" />
      <path
         style="fill:none;stroke:#ffffff;stroke-width:0.416501;stroke-linecap:round;stroke-linejoin:round;stroke-miterlimit:4;stroke-dasharray:none;stroke-opacity:1"
         d="m 427.19267,133.98079 c 2.42378,0.99845 4.88415,0.8993 7.37119,0"
         id="path8059"
         sodipodi:nodetypes="cc" />
      <path
         id="path8481"
         style="fill:#fffefe;fill-opacity:1;stroke:none;stroke-width:1.57418;stroke-linecap:round;stroke-linejoin:round;stroke-miterlimit:4;stroke-dasharray:none;stroke-opacity:1"
         d="m 1619.8809,454.75586 c -5.6241,0 -11.2567,4.07209 -16.5918,4.63672 a 25.634276,14.699449 0 0 0 25.6367,14.69922 25.634276,14.699449 0 0 0 25.6328,-14.69922 c -5.3352,-0.56463 -10.9678,-4.63672 -16.5918,-4.63672 -5.6241,0 -5.6222,3.00195 -9.043,3.00195 -3.4207,0 -3.4189,-3.00195 -9.0429,-3.00195 z"
         transform="scale(0.26458333)" />
      <path
         style="fill:none;stroke:#ffffff;stroke-width:0.416501;stroke-linecap:round;stroke-linejoin:round;stroke-miterlimit:4;stroke-dasharray:none;stroke-opacity:1"
         d="M 449.79767,99.23727 C 444.69558,79.28622 426.9038,87.531671 424.81245,77.162786"
         id="path10275"
         sodipodi:nodetypes="cc" />
      <path
         style="fill:none;stroke:#fbfbfb;stroke-width:0.416501;stroke-linecap:round;stroke-linejoin:round;stroke-miterlimit:4;stroke-dasharray:none;stroke-opacity:1"
         d="m 428.65854,82.069119 c -3.98353,0.3745 -15.74898,3.614739 -16.69102,17.186256"
         id="path10896"
         sodipodi:nodetypes="cc" />
      <path
         style="fill:none;stroke:#fefefe;stroke-width:0.416501;stroke-linecap:round;stroke-linejoin:round;stroke-miterlimit:4;stroke-dasharray:none;stroke-opacity:1"
         d="m 413.43953,78.556788 c 7.10971,-12.314374 27.86852,-12.139874 34.87748,0"
         id="path11256"
         sodipodi:nodetypes="cc" />
    </g>
  </g>
</svg>
