<?xml version="1.0" encoding="UTF-8" standalone="no"?>
<svg
   width="700"
   height="130"
   viewBox="0 0 185.20833 34.395834"
   version="1.1"
   id="svg8"
   inkscape:version="1.1.1 (3bf5ae0d25, 2021-09-20, custom)"
   sodipodi:docname="logo.svg"
   inkscape:export-filename="/home/denis/Документы/вва.png"
   inkscape:export-xdpi="96"
   inkscape:export-ydpi="96"
   xmlns:inkscape="http://www.inkscape.org/namespaces/inkscape"
   xmlns:sodipodi="http://sodipodi.sourceforge.net/DTD/sodipodi-0.dtd"
   xmlns="http://www.w3.org/2000/svg"
   xmlns:svg="http://www.w3.org/2000/svg"
   xmlns:rdf="http://www.w3.org/1999/02/22-rdf-syntax-ns#"
   xmlns:cc="http://creativecommons.org/ns#"
   xmlns:dc="http://purl.org/dc/elements/1.1/">
  <defs
     id="defs2" />
  <sodipodi:namedview
     id="base"
     pagecolor="#ffffff"
     bordercolor="#666666"
     borderopacity="1.0"
     inkscape:pageopacity="0.0"
     inkscape:pageshadow="2"
     inkscape:zoom="0.64"
     inkscape:cx="457.03125"
     inkscape:cy="150"
     inkscape:document-units="mm"
     inkscape:current-layer="layer1"
     inkscape:document-rotation="0"
     showgrid="false"
     inkscape:snap-global="true"
     inkscape:snap-bbox="true"
     inkscape:bbox-paths="true"
     inkscape:bbox-nodes="true"
     inkscape:snap-bbox-edge-midpoints="true"
     inkscape:snap-bbox-midpoints="true"
     inkscape:object-paths="true"
     inkscape:object-nodes="true"
     inkscape:snap-intersection-paths="true"
     inkscape:snap-smooth-nodes="true"
     inkscape:snap-midpoints="true"
     inkscape:window-width="1328"
     inkscape:window-height="739"
     inkscape:window-x="0"
     inkscape:window-y="0"
     inkscape:window-maximized="1"
     units="px"
     inkscape:pagecheckerboard="0"
     width="700px" />
  <metadata
     id="metadata5">
    <rdf:RDF>
      <cc:Work
         rdf:about="">
        <dc:format>image/svg+xml</dc:format>
        <dc:type
           rdf:resource="http://purl.org/dc/dcmitype/StillImage" />
      </cc:Work>
    </rdf:RDF>
  </metadata>
  <g
     inkscape:label="Слой 1"
     inkscape:groupmode="layer"
     id="layer1">
    <text
       style="font-variant:normal;font-weight:normal;font-stretch:normal;font-size:7.19141px;font-family:Impact;-inkscape-font-specification:Impact;writing-mode:lr-tb;fill:#ffeedb;fill-opacity:1;fill-rule:nonzero;stroke:none;stroke-width:0.352778"
       id="text1418"
       x="-629.2782"
       y="1611.6893"><tspan
         x="-519.88605 -516.276 -512.29193 -508.43741"
         sodipodi:role="line"
         id="tspan1416"
         style="fill:#ffeedb;fill-opacity:1;stroke-width:0.352778" /></text>
    <path
       id="path6185"
       style="font-size:25.8403px;line-height:1.25;font-family:'Bebas Neue Cyrillic';-inkscape-font-specification:'Bebas Neue Cyrillic';stroke-width:0.646007;fill:#fcfcfc;fill-opacity:1"
       d="m 103.33736,0.25370167 c -1.39539,0 -2.4551,0.39612 -3.17863,1.18856003 -0.706305,0.77521 -1.059365,1.8952 -1.059365,3.35948 v 9.4056303 c 0,1.46429 0.35306,2.59289 1.059365,3.38532 0.72353,0.77522 1.78324,1.16272 3.17863,1.16272 1.39538,0 2.44596,-0.3875 3.15227,-1.16272 0.7235,-0.79243 1.08519,-1.92103 1.08519,-3.38532 V 8.4712917 h -3.97907 v 2.5838203 h 1.29191 v 3.33313 c 0,0.65462 -0.1378,1.11154 -0.41341,1.36994 -0.25842,0.25841 -0.61148,0.38757 -1.05937,0.38757 -0.44791,0 -0.8101,-0.12916 -1.08574,-0.38757 -0.2584,-0.2584 -0.38757,-0.71532 -0.38757,-1.36994 V 4.6208817 c 0,-0.65462 0.12917,-1.11103 0.38757,-1.36943 0.27564,-0.27563 0.63783,-0.41341 1.08574,-0.41341 0.44789,0 0.80095,0.13778 1.05937,0.41341 0.27561,0.2584 0.41341,0.71481 0.41341,1.36943 v 1.93786 h 2.68716 v -1.757 c 0,-1.46428 -0.36169,-2.58427 -1.08519,-3.35948 -0.70631,-0.79244003 -1.75689,-1.18856003 -3.15227,-1.18856003 z m 24.39283,0 c -1.39538,0 -2.46319,0.39612 -3.20394,1.18856003 -0.74076,0.77521 -1.11104,1.8952 -1.11104,3.35948 v 9.4056303 c 0,1.46429 0.37028,2.59289 1.11104,3.38532 0.74075,0.77522 1.80856,1.16272 3.20394,1.16272 1.39534,0 2.4637,-0.3875 3.20445,-1.16272 0.74076,-0.79243 1.11104,-1.92103 1.11104,-3.38532 V 4.8017417 c 0,-1.46428 -0.37028,-2.58427 -1.11104,-3.35948 -0.74075,-0.79244003 -1.80911,-1.18856003 -3.20445,-1.18856003 z m 22.86887,0 c -1.39536,0 -2.44594,0.39612 -3.15225,1.18856003 -0.68908,0.77521 -1.03404,1.8952 -1.03404,3.35948 0,0.86135 0.13777,1.61054 0.41341,2.24793 0.27561,0.63739 0.62058,1.20626 1.03404,1.70584 0.41344,0.49958 0.85265,0.96459 1.31773,1.3952603 0.48237,0.41344 0.93015,0.8354 1.34361,1.26608 0.41344,0.41344 0.7579,0.86123 1.03352,1.34358 0.27564,0.46512 0.41341,1.00763 0.41341,1.62781 0,0.65462 -0.13777,1.11154 -0.41341,1.36994 -0.2584,0.25841 -0.61146,0.38757 -1.05937,0.38757 -0.44789,0 -0.80957,-0.12916 -1.08519,-0.38757 -0.25842,-0.2584 -0.38759,-0.71532 -0.38759,-1.36994 v -1.4211 h -2.68769 v 1.24023 c 0,1.46429 0.35359,2.59289 1.0599,3.38532 0.72353,0.77522 1.78271,1.16272 3.17809,1.16272 1.39536,0 2.44647,-0.3875 3.15278,-1.16272 0.72353,-0.79243 1.08521,-1.92103 1.08521,-3.38532 0,-0.86134 -0.13779,-1.61053 -0.41341,-2.24792 -0.27564,-0.6374 -0.6206,-1.20575 -1.03404,-1.70533 -0.41344,-0.4995803 -0.86125,-0.9559703 -1.34361,-1.3694203 -0.46511,-0.43067 -0.90429,-0.85315 -1.31773,-1.26659 -0.41346,-0.43067 -0.7579,-0.87846 -1.03354,-1.34359 -0.27562,-0.48235 -0.41341,-1.03348 -0.41341,-1.65364 0,-0.65462 0.12057,-1.11103 0.36173,-1.36943 0.2584,-0.27563 0.61148,-0.41341 1.05937,-0.41341 0.44791,0 0.79235,0.13778 1.03354,0.41341 0.25839,0.2584 0.38756,0.71481 0.38756,1.36943 v 0.8785 h 2.68769 v -0.69764 c 0,-1.46428 -0.35306,-2.58427 -1.05936,-3.35948 -0.68908,-0.79244003 -1.73157,-1.18856003 -3.12695,-1.18856003 z m 9.9229,0 c -1.39533,0 -2.46369,0.39612 -3.20444,1.18856003 -0.74076,0.77521 -1.11104,1.8952 -1.11104,3.35948 v 9.4056303 c 0,1.46429 0.37028,2.59289 1.11104,3.38532 0.74075,0.77522 1.80911,1.16272 3.20444,1.16272 1.39539,0 2.4632,-0.3875 3.20395,-1.16272 0.74075,-0.79243 1.11104,-1.92103 1.11104,-3.38532 V 4.8017417 c 0,-1.46428 -0.37029,-2.58427 -1.11104,-3.35948 -0.74075,-0.79244003 -1.80856,-1.18856003 -3.20395,-1.18856003 z m -136.319828,0.19637 A 13.682763,13.682763 0 0 0 17.479027,10.523882 C 14.3516,7.5331717 11.311963,5.8786817 11.311963,5.8786817 a 13.682763,13.682763 0 0 0 -0.792715,4.5888703 13.682763,13.682763 0 0 0 10.472745,13.29789 3.2407047,3.2407047 0 0 0 3.210139,2.81172 3.2407047,3.2407047 0 0 0 3.210658,-2.81275 13.682763,13.682763 0 0 0 10.472227,-13.29686 13.682763,13.682763 0 0 0 -0.7922,-4.5888703 c 0,0 -3.040152,1.65447 -6.16758,4.6452003 A 13.682763,13.682763 0 0 0 24.202132,0.45007167 Z m 34.68988,0.0104 V 18.548772 h 7.751975 v -2.58382 h -4.909768 v -5.29735 h 3.902075 V 8.0832617 h -3.902075 v -5.03845 h 4.909768 V 0.46047167 Z m 9.483143,0 V 18.548772 H 70.93365 V 5.4477617 l 3.539834,13.1010103 h 2.920232 V 0.46047167 H 74.861045 V 11.287712 L 71.941342,0.46047167 Z m 11.059769,0 V 18.548772 h 7.752 v -2.58382 h -4.909793 v -5.29735 h 3.902101 V 8.0832617 h -3.902101 v -5.03845 h 4.909793 V 0.46047167 Z m 9.508992,0 V 18.548772 h 2.84271 v -7.36441 h 0.981869 c 0.654605,0 1.128236,0.17223 1.421103,0.51676 0.292841,0.34454 0.439235,0.93873 0.439235,1.78284 v 2.84272 0.90434 c 0.0172,0.24117 0.03448,0.43923 0.05167,0.59428 0.03445,0.15504 0.0689,0.28421 0.103373,0.38757 0.03442,0.10336 0.06887,0.21531 0.103346,0.3359 h 2.894383 c -0.137795,-0.34453 -0.223917,-0.68038 -0.258366,-1.00769 -0.03448,-0.34453 -0.05167,-0.74066 -0.05167,-1.18856 v -2.79104 c 0,-0.94748 -0.137795,-1.74834 -0.413411,-2.40296 -0.258419,-0.67184 -0.749776,-1.15408 -1.473306,-1.4469403 1.24034,-0.58571 1.860867,-1.80904 1.860867,-3.66954 v -1.4211 c 0,-1.39538 -0.335835,-2.43787 -1.007692,-3.12694 -0.654605,-0.68908003 -1.72294,-1.03353003 -3.204448,-1.03353003 z m 19.535244,0 3.59204,12.09332033 v 5.99498 h 2.84218 v -5.99498 l 3.59204,-12.09332033 h -2.71301 l -2.17094,8.24342003 -2.1704,-8.24342003 z m 25.40104,0 V 18.548772 h 2.84271 v -7.46776 h 3.66903 V 8.4971417 h -3.66903 v -5.45238 h 4.67725 V 0.46042167 Z m 32.6626,0 V 14.233272 c 0,1.46429 0.35306,2.59289 1.05936,3.38532 0.72353,0.77522 1.78274,1.16272 3.1781,1.16272 1.39538,0 2.44649,-0.3875 3.1528,-1.16272 0.72347,-0.79243 1.08519,-1.92103 1.08519,-3.38532 V 0.46047167 h -2.68769 V 14.414142 c 0,0.65462 -0.1378,1.11154 -0.41342,1.36994 -0.25839,0.2584 -0.61147,0.38757 -1.05936,0.38757 -0.44789,0 -0.80957,-0.12917 -1.08522,-0.38757 -0.25839,-0.2584 -0.38756,-0.71532 -0.38756,-1.36994 V 0.46047167 Z m 10.41331,0 V 18.548772 h 7.51946 v -2.58382 h -4.67673 V 0.46047167 Z M 127.73019,2.8381017 c 0.44786,0 0.80148,0.13778 1.05987,0.41341 0.27564,0.2584 0.41341,0.71481 0.41341,1.36943 v 9.7673603 c 0,0.65462 -0.13777,1.12015 -0.41341,1.39578 -0.25839,0.2584 -0.61201,0.38757 -1.05987,0.38757 -0.44791,0 -0.80959,-0.12917 -1.08521,-0.38757 -0.25842,-0.27563 -0.38759,-0.74116 -0.38759,-1.39578 V 4.6209417 c 0,-0.65462 0.12917,-1.11103 0.38759,-1.36943 0.27562,-0.27563 0.6373,-0.41341 1.08521,-0.41341 z m 32.79177,0 c 0.44792,0 0.80098,0.13778 1.0594,0.41341 0.27561,0.2584 0.41341,0.71481 0.41341,1.36943 v 9.7673603 c 0,0.65462 -0.1378,1.12015 -0.41341,1.39578 -0.25842,0.2584 -0.61148,0.38757 -1.0594,0.38757 -0.44786,0 -0.81007,-0.12917 -1.08571,-0.38757 -0.2584,-0.27563 -0.38757,-0.74116 -0.38757,-1.39578 V 4.6209417 c 0,-0.65462 0.12917,-1.11103 0.38757,-1.36943 0.27564,-0.27563 0.63785,-0.41341 1.08571,-0.41341 z m -68.735334,0.20671 h 1.36943 c 0.499587,0 0.861246,0.14639 1.085215,0.43924 0.241168,0.29286 0.361739,0.76648 0.361739,1.42111 v 1.78283 c 0,0.72353 -0.15502,1.22299 -0.465085,1.49862 -0.292867,0.27564 -0.706199,0.41393 -1.240234,0.41393 h -1.111065 z m -67.584494,4.8767 a 9.4293162,9.4293162 0 0 1 4.714957,8.1664303 9.4293162,9.4293162 0 0 1 -1.891874,5.65702 3.2407047,3.2407047 0 0 0 -2.823083,-1.649 3.2407047,3.2407047 0 0 0 -2.822051,1.65003 9.4293162,9.4293162 0 0 1 -1.892906,-5.65805 9.4293162,9.4293162 0 0 1 4.714957,-8.1664303 z m 9.097637,3.4370003 a 9.6571264,9.6571264 0 0 1 0.559655,3.23856 9.6571264,9.6571264 0 0 1 -6.438884,9.1028 3.2407047,3.2407047 0 0 0 0.02273,-0.36328 3.2407047,3.2407047 0 0 0 -0.337447,-1.43919 13.682763,13.682763 0 0 0 3.920176,-9.02322 c 1.304319,-0.98567 2.273763,-1.51567 2.273763,-1.51567 z m -18.102773,0.13074 c 0,0 0.926764,0.50678 2.184363,1.45056 a 13.682763,13.682763 0 0 0 3.918625,8.95811 3.2407047,3.2407047 0 0 0 -0.338482,1.43867 3.2407047,3.2407047 0 0 0 0.02222,0.35657 9.5589816,9.5589816 0 0 1 -6.340181,-8.9979 9.5589816,9.5589816 0 0 1 0.553453,-3.20601 z m -5.5758844,13.43329 a 23.469309,5.1690515 0 0 0 -8.88834625,4.0504 23.469309,5.1690515 0 0 0 23.46936665,5.16919 23.469309,5.1690515 0 0 0 23.46937,-5.16919 23.469309,5.1690515 0 0 0 -8.887831,-4.0504 19.451078,4.2840476 0 0 1 4.869987,2.83548 19.451078,4.2840476 0 0 1 -19.451526,4.28398 19.451078,4.2840476 0 0 1 -19.4510073,-4.28398 19.451078,4.2840476 0 0 1 4.8699869,-2.83548 z m 5.7991264,0 a 14.135199,3.1132393 0 0 0 -5.353677,2.43913 14.135199,3.1132393 0 0 0 14.135571,3.11402 14.135199,3.1132393 0 0 0 14.135055,-3.11402 14.135199,3.1132393 0 0 0 -5.353161,-2.43913 11.715082,2.5802151 0 0 1 2.933671,1.70739 11.715082,2.5802151 0 0 1 -11.715565,2.5802 11.715082,2.5802151 0 0 1 -11.715046,-2.5802 11.715082,2.5802151 0 0 1 2.933152,-1.70739 z m 85.713642,0.53175 v 0.78186 h 2.30682 v -0.78186 z m -10.789021,1.07745 c -0.514694,0 -0.905669,0.14593 -1.172528,0.43822 -0.260535,0.28594 -0.390684,0.69909 -0.390684,1.2392 v 3.46904 c 0,0.54011 0.130149,0.95673 0.390684,1.24902 0.266859,0.28593 0.657834,0.42891 1.172528,0.42891 0.514693,0 0.902202,-0.14298 1.162737,-0.42891 0.266859,-0.29229 0.399971,-0.70891 0.399971,-1.24902 v -0.88625 h -0.991156 v 0.95343 c 0,0.24146 -0.05077,0.40956 -0.152452,0.50488 -0.0953,0.0953 -0.225478,0.14314 -0.390684,0.14314 -0.165206,0 -0.298821,-0.0478 -0.400474,-0.14314 -0.0953,-0.0953 -0.142636,-0.26342 -0.142636,-0.50488 v -3.60288 c 0,-0.24146 0.04733,-0.41008 0.142636,-0.5054 0.101653,-0.10166 0.235268,-0.15244 0.400474,-0.15244 0.165206,0 0.295381,0.0508 0.390684,0.15244 0.101679,0.0953 0.152452,0.26394 0.152452,0.5054 v 0.71468 h 0.991156 v -0.64802 c 0,-0.54011 -0.133112,-0.95326 -0.399971,-1.2392 -0.260535,-0.29229 -0.648044,-0.43822 -1.162737,-0.43822 z m 26.325011,0 c -0.51469,0 -0.90514,0.14593 -1.17202,0.43822 -0.26051,0.28594 -0.39119,0.69909 -0.39119,1.2392 v 3.46904 c 0,0.54011 0.13068,0.95673 0.39119,1.24902 0.26688,0.28593 0.65733,0.42891 1.17202,0.42891 0.51469,0 0.9022,-0.14298 1.16271,-0.42891 0.26689,-0.29229 0.4005,-0.70891 0.4005,-1.24902 v -0.88625 h -0.99115 v 0.95343 c 0,0.24146 -0.0508,0.40956 -0.15243,0.50488 -0.0953,0.0953 -0.22548,0.14314 -0.39068,0.14314 -0.16521,0 -0.29883,-0.0478 -0.4005,-0.14314 -0.0953,-0.0953 -0.14314,-0.26342 -0.14314,-0.50488 v -3.60288 c 0,-0.24146 0.0478,-0.41008 0.14314,-0.5054 0.10167,-0.10166 0.23529,-0.15244 0.4005,-0.15244 0.1652,0 0.29535,0.0508 0.39068,0.15244 0.10165,0.0953 0.15243,0.26394 0.15243,0.5054 v 0.71468 h 0.99115 v -0.64802 c 0,-0.54011 -0.13361,-0.95326 -0.4005,-1.2392 -0.26051,-0.29229 -0.64802,-0.43822 -1.16271,-0.43822 z m 3.69848,0 c -0.51467,0 -0.90564,0.14593 -1.17253,0.43822 -0.26053,0.28594 -0.39068,0.69909 -0.39068,1.2392 v 3.46904 c 0,0.54011 0.13015,0.95673 0.39068,1.24902 0.26689,0.28593 0.65786,0.42891 1.17253,0.42891 0.51469,0 0.9022,-0.14298 1.16274,-0.42891 0.26685,-0.29229 0.39997,-0.70891 0.39997,-1.24902 v -0.88625 h -0.99116 v 0.95343 c 0,0.24146 -0.0508,0.40956 -0.15245,0.50488 -0.0953,0.0953 -0.22545,0.14314 -0.39066,0.14314 -0.16523,0 -0.29885,-0.0478 -0.4005,-0.14314 -0.0953,-0.0953 -0.14264,-0.26342 -0.14264,-0.50488 v -3.60288 c 0,-0.24146 0.0473,-0.41008 0.14264,-0.5054 0.10165,-0.10166 0.23527,-0.15244 0.4005,-0.15244 0.16521,0 0.29536,0.0508 0.39066,0.15244 0.10168,0.0953 0.15245,0.26394 0.15245,0.5054 v 0.71468 h 0.99116 v -0.64802 c 0,-0.54011 -0.13312,-0.95326 -0.39997,-1.2392 -0.26054,-0.29229 -0.64805,-0.43822 -1.16274,-0.43822 z m 24.54269,0 c -0.51469,0 -0.9086,0.14593 -1.18184,0.43822 -0.27323,0.28594 -0.40978,0.69909 -0.40978,1.2392 v 3.46904 c 0,0.54011 0.13655,0.95673 0.40978,1.24902 0.27324,0.28593 0.66715,0.42891 1.18184,0.42891 0.5147,0 0.90861,-0.14298 1.18185,-0.42891 0.27323,-0.29229 0.40978,-0.70891 0.40978,-1.24902 v -3.46904 c 0,-0.54011 -0.13655,-0.95326 -0.40978,-1.2392 -0.27324,-0.29229 -0.66715,-0.43822 -1.18185,-0.43822 z m 7.61556,0 c -0.51469,0 -0.90861,0.14593 -1.18184,0.43822 -0.27324,0.28594 -0.40979,0.69909 -0.40979,1.2392 v 3.46904 c 0,0.54011 0.13655,0.95673 0.40979,1.24902 0.27323,0.28593 0.66715,0.42891 1.18184,0.42891 0.51469,0 0.90861,-0.14298 1.18184,-0.42891 0.27324,-0.29229 0.40979,-0.70891 0.40979,-1.24902 v -3.46904 c 0,-0.54011 -0.13655,-0.95326 -0.40979,-1.2392 -0.27323,-0.29229 -0.66715,-0.43822 -1.18184,-0.43822 z m 3.72689,0 c -0.51466,0 -0.90564,0.14593 -1.17252,0.43822 -0.26054,0.28594 -0.39069,0.69909 -0.39069,1.2392 v 3.46904 c 0,0.54011 0.13015,0.95673 0.39069,1.24902 0.26688,0.28593 0.65786,0.42891 1.17252,0.42891 0.5147,0 0.90221,-0.14298 1.16274,-0.42891 0.26686,-0.29229 0.40048,-0.70891 0.40048,-1.24902 v -0.88625 h -0.99166 v 0.95343 c 0,0.24146 -0.0508,0.40956 -0.15246,0.50488 -0.0953,0.0953 -0.22545,0.14314 -0.39065,0.14314 -0.16524,0 -0.29885,-0.0478 -0.4005,-0.14314 -0.0953,-0.0953 -0.14264,-0.26342 -0.14264,-0.50488 v -3.60288 c 0,-0.24146 0.0473,-0.41008 0.14264,-0.5054 0.10165,-0.10166 0.23526,-0.15244 0.4005,-0.15244 0.1652,0 0.29535,0.0508 0.39065,0.15244 0.10168,0.0953 0.15246,0.26394 0.15246,0.5054 v 0.71468 h 0.99166 v -0.64802 c 0,-0.54011 -0.13362,-0.95326 -0.40048,-1.2392 -0.26053,-0.29229 -0.64804,-0.43822 -1.16274,-0.43822 z m 19.18645,0 c -0.51469,0 -0.90567,0.14593 -1.17255,0.43822 -0.26051,0.28594 -0.39066,0.69909 -0.39066,1.2392 v 3.46904 c 0,0.54011 0.13015,0.95673 0.39066,1.24902 0.26688,0.28593 0.65786,0.42891 1.17255,0.42891 0.51467,0 0.90218,-0.14298 1.16271,-0.42891 0.26686,-0.29229 0.4005,-0.70891 0.4005,-1.24902 v -0.88625 H 176.012 v 0.95343 c 0,0.24146 -0.0513,0.40956 -0.15299,0.50488 -0.0953,0.0953 -0.22545,0.14314 -0.39065,0.14314 -0.16521,0 -0.29832,-0.0478 -0.39997,-0.14314 -0.0953,-0.0953 -0.14314,-0.26342 -0.14314,-0.50488 v -3.60288 c 0,-0.24146 0.0478,-0.41008 0.14314,-0.5054 0.10165,-0.10166 0.23476,-0.15244 0.39997,-0.15244 0.1652,0 0.29535,0.0508 0.39065,0.15244 0.10168,0.0953 0.15299,0.26394 0.15299,0.5054 v 0.71468 h 0.99115 v -0.64802 c 0,-0.54011 -0.13364,-0.95326 -0.4005,-1.2392 -0.26053,-0.29229 -0.64804,-0.43822 -1.16271,-0.43822 z m -116.539143,0.076 v 6.67194 h 0.915193 v -4.71806 l 0.781341,4.71806 h 0.991659 l 0.724006,-4.78472 v 4.78472 h 0.991155 v -6.67194 H 61.84635 l -0.715195,4.73718 -0.772054,-4.73718 z m 5.166095,0 v 6.67194 h 2.859246 v -0.95291 h -1.810729 v -1.95389 h 1.439175 v -0.95343 h -1.439175 v -1.85828 h 1.810729 v -0.95343 z m 8.340037,0 v 6.67194 h 1.07696 l 1.305851,-4.83226 v 4.83226 h 0.94361 v -6.67194 h -1.315667 l -1.07696,3.99355 v -3.99355 z m 4.088659,0 v 6.67194 h 2.773468 v 0.76275 h 1.067647 v -1.71566 H 79.80288 v -5.71903 h -1.067118 v 5.71903 h -1.191657 v -5.71903 z m 4.222485,0 v 6.67194 h 1.076934 l 1.305851,-4.83226 v 4.83226 h 0.94361 v -6.67194 h -1.315164 l -1.077437,3.99355 v -3.99355 z m 4.089136,0 v 6.67194 h 1.048014 v -2.85926 h 1.191657 v 2.85926 h 1.06762 v -6.67194 h -1.06762 v 2.85926 h -1.191657 v -2.85926 z m 7.767505,0 v 6.67194 h 1.048491 v -2.04897 l 0.324035,-0.6103 1.020074,2.65927 h 1.076934 l -1.458304,-3.69796 1.458304,-2.97398 H 95.01486 l -1.391655,2.90731 v -2.90731 z m 3.945996,0 v 6.67194 h 1.077462 l 1.305349,-4.83226 v 4.83226 h 0.94361 v -6.67194 h -1.315165 l -1.076933,3.99355 v -3.99355 z m 4.08916,0 v 6.67194 h 1.07694 l 1.30587,-4.83226 v 4.83226 h 0.94361 v -6.67194 h -1.31516 l -1.07746,3.99355 v -3.99355 z m 5.56607,0 v 6.67194 h 0.91519 v -4.71806 l 0.78134,4.71806 h 0.99169 l 0.72398,-4.78472 v 4.78472 h 0.99115 v -6.67194 h -1.4578 l -0.71519,4.73718 -0.77206,-4.73718 z m 5.94744,0 -1.06712,6.67194 h 0.96274 l 0.18087,-1.21026 h 1.28675 l 0.18086,1.21026 h 1.05834 l -1.06765,-6.67194 z m 11.25667,0 -1.06762,6.67194 h 0.96274 l 0.18137,-1.21026 h 1.28622 l 0.1814,1.21026 h 1.0578 l -1.06762,-6.67194 z m 2.79259,0 1.45834,2.97398 -1.45834,3.69796 h 1.07694 l 1.0201,-2.65927 0.31419,0.59118 v 2.06809 h 1.05834 v -2.06809 l 0.31419,-0.59118 1.0201,2.65927 h 1.07693 l -1.4583,-3.69796 1.4583,-2.97398 h -1.02939 l -1.38183,2.88819 v -2.88819 h -1.05834 v 2.88819 l -1.38181,-2.88819 z m 7.83469,0 v 6.67194 h 1.64899 c 0.52739,0 0.92477,-0.13362 1.19165,-0.40049 0.26686,-0.27323 0.39997,-0.66715 0.39997,-1.18184 v -0.54312 c 0,-0.35583 -0.0601,-0.65461 -0.18086,-0.89607 -0.11438,-0.24781 -0.31454,-0.4258 -0.60048,-0.53381 0.23509,-0.10803 0.40667,-0.27318 0.5147,-0.49558 0.10803,-0.2224 0.16174,-0.50489 0.16174,-0.84801 v -0.23823 c 0,-0.51469 -0.12375,-0.89925 -0.37156,-1.15342 -0.24146,-0.25417 -0.63537,-0.38137 -1.18184,-0.38137 z m 5.33765,0 v 6.67194 h 1.04852 v -2.85926 h 1.19112 v 2.85926 h 1.06765 v -6.67194 h -1.06765 v 2.85926 h -1.19112 v -2.85926 z m 7.82537,0 v 6.67194 h 1.64846 c 0.52739,0 0.9248,-0.13362 1.19166,-0.40049 0.26688,-0.27323 0.40049,-0.66715 0.40049,-1.18184 v -0.54312 c 0,-0.35583 -0.0606,-0.65461 -0.18137,-0.89607 -0.11438,-0.24781 -0.31456,-0.4258 -0.6005,-0.53381 0.23511,-0.10803 0.4067,-0.27318 0.5147,-0.49558 0.10803,-0.2224 0.16227,-0.50489 0.16227,-0.84801 v -0.23823 c 0,-0.51469 -0.12425,-0.89925 -0.37206,-1.15342 -0.24146,-0.25417 -0.6354,-0.38137 -1.18184,-0.38137 z m 11.3135,0 v 6.67194 h 1.07694 l 1.30587,-4.83226 v 4.83226 h 0.94361 v -6.67194 h -1.31569 l -1.07693,3.99355 v -3.99355 z m 4.08863,0 v 6.67194 h 1.54411 c 0.5274,0 0.91837,-0.14003 1.17253,-0.41961 0.26054,-0.27959 0.39068,-0.68928 0.39068,-1.22938 v -0.86713 c 0,-0.54011 -0.13014,-0.95031 -0.39068,-1.2299 -0.25416,-0.27958 -0.64513,-0.4191 -1.17253,-0.4191 H 163.621 v -1.55339 h 1.72548 v -0.95343 z m 3.72693,0 v 6.67194 h 1.07693 l 1.30585,-4.83226 v 4.83226 h 0.94364 v -6.67194 h -1.31517 l -1.07746,3.99355 v -3.99355 z m 4.08916,0 v 6.67194 h 1.04799 v -2.50682 h 0.49556 c 0.52739,0 0.9184,-0.13951 1.17255,-0.4191 0.26051,-0.27958 0.39069,-0.68979 0.39069,-1.2299 v -0.86713 c 0,-0.5401 -0.13018,-0.94979 -0.39069,-1.22938 -0.25415,-0.27959 -0.64516,-0.41961 -1.17255,-0.41961 z m 7.28173,0 v 6.67194 h 1.04849 v -2.04897 l 0.32401,-0.6103 1.0196,2.65927 h 1.07693 l -1.4578,-3.69796 1.4578,-2.97398 h -1.02889 l -1.39165,2.90731 v -2.90731 z m 3.94599,0 v 6.67194 h 2.85928 v -0.95291 h -1.81076 v -1.95389 h 1.4392 v -0.95343 h -1.4392 v -1.85828 h 1.81076 v -0.95343 z m -113.489182,5.3e-4 v 5.08961 c 0,0.26053 -0.06014,0.4321 -0.180869,0.5147 -0.114379,0.0826 -0.254423,0.12402 -0.419629,0.12402 h -0.180869 c -0.06353,0 -0.124169,-0.003 -0.181372,-0.01 v 1.71566 h 1.067647 v -0.76212 h 2.678377 v 0.76222 h 1.067646 v -1.71514 h -0.533823 v -5.71903 z m 76.783932,0.87643 c 0.16521,0 0.29589,0.0508 0.39119,0.15245 0.10168,0.0953 0.15245,0.26393 0.15245,0.50539 v 3.60288 c 0,0.24146 -0.0508,0.41303 -0.15245,0.5147 -0.0953,0.0953 -0.22598,0.14263 -0.39119,0.14263 -0.1652,0 -0.29831,-0.0473 -0.39997,-0.14263 -0.0953,-0.10167 -0.14314,-0.27324 -0.14314,-0.5147 v -3.60288 c 0,-0.24146 0.0478,-0.41008 0.14314,-0.50539 0.10166,-0.10167 0.23477,-0.15245 0.39997,-0.15245 z m 7.61556,0 c 0.16521,0 0.29535,0.0508 0.39068,0.15245 0.10166,0.0953 0.15243,0.26393 0.15243,0.50539 v 3.60288 c 0,0.24146 -0.0508,0.41303 -0.15243,0.5147 -0.0953,0.0953 -0.22547,0.14263 -0.39068,0.14263 -0.16521,0 -0.29832,-0.0473 -0.39997,-0.14263 -0.0953,-0.10167 -0.14314,-0.27324 -0.14314,-0.5147 v -3.60288 c 0,-0.24146 0.0478,-0.41008 0.14314,-0.50539 0.10165,-0.10167 0.23476,-0.15245 0.39997,-0.15245 z m -83.350974,0.0765 h 1.220073 v 4.7656 h -1.305878 c 0.0572,-0.19063 0.08581,-0.4258 0.08581,-0.70538 z m 65.880194,0 h 0.50541 c 0.18428,0 0.31736,0.0537 0.39997,0.16175 0.089,0.10802 0.13332,0.28305 0.13332,0.52451 v 0.37156 c 0,0.26688 -0.0572,0.45127 -0.17156,0.55293 -0.10803,0.10167 -0.26035,0.15245 -0.45733,0.15245 h -0.40981 z m 13.16252,0 h 0.5054 c 0.18426,0 0.31787,0.0537 0.40048,0.16175 0.089,0.10802 0.13332,0.28305 0.13332,0.52451 v 0.37156 c 0,0.26688 -0.0572,0.45127 -0.17156,0.55293 -0.10802,0.10167 -0.26035,0.15245 -0.45733,0.15245 h -0.41031 z m 23.21822,0 h 0.49556 c 0.16523,0 0.29242,0.0444 0.3814,0.13333 0.0889,0.089 0.13332,0.25411 0.13332,0.49557 v 1.00098 c 0,0.24146 -0.0444,0.40662 -0.13332,0.49557 -0.089,0.089 -0.21617,0.13333 -0.3814,0.13333 h -0.49556 z m -58.59799,0.22841 0.50491,3.37396 h -1.01029 z m 11.25617,0 0.50541,3.37396 h -1.01029 z m 39.52626,2.2779 h 0.49559 c 0.16521,0 0.29242,0.0449 0.38137,0.13384 0.089,0.089 0.13333,0.25412 0.13333,0.49558 v 1.00045 c 0,0.24146 -0.0444,0.40662 -0.13333,0.49558 -0.089,0.089 -0.21616,0.13384 -0.38137,0.13384 H 163.621 Z m -28.56518,0.20981 h 0.46717 c 0.24146,0 0.41302,0.0572 0.5147,0.17156 0.10803,0.11437 0.16174,0.32737 0.16174,0.63872 v 0.58136 c 0,0.24781 -0.0473,0.41939 -0.14261,0.5147 -0.089,0.0953 -0.2226,0.14314 -0.4005,0.14314 h -0.6005 z m 13.16252,0 h 0.46714 c 0.24146,0 0.41305,0.0572 0.5147,0.17156 0.10803,0.11437 0.16227,0.32737 0.16227,0.63872 v 0.58136 c 0,0.24781 -0.0478,0.41939 -0.14314,0.5147 -0.089,0.0953 -0.22257,0.14314 -0.4005,0.14314 h -0.60047 z" />
  </g>
</svg>
