<?xml version="1.0" encoding="UTF-8" standalone="no"?>
<svg
   width="200"
   height="200"
   viewBox="0 0 52.916665 52.916668"
   version="1.1"
   id="svg8"
   inkscape:version="1.1.1 (3bf5ae0d25, 2021-09-20, custom)"
   sodipodi:docname="logotitle.svg"
   inkscape:export-filename="/home/denis/Документы/вва.png"
   inkscape:export-xdpi="96"
   inkscape:export-ydpi="96"
   xmlns:inkscape="http://www.inkscape.org/namespaces/inkscape"
   xmlns:sodipodi="http://sodipodi.sourceforge.net/DTD/sodipodi-0.dtd"
   xmlns="http://www.w3.org/2000/svg"
   xmlns:svg="http://www.w3.org/2000/svg"
   xmlns:rdf="http://www.w3.org/1999/02/22-rdf-syntax-ns#"
   xmlns:cc="http://creativecommons.org/ns#"
   xmlns:dc="http://purl.org/dc/elements/1.1/">
  <defs
     id="defs2" />
  <sodipodi:namedview
     id="base"
     pagecolor="#ffffff"
     bordercolor="#666666"
     borderopacity="1.0"
     inkscape:pageopacity="0.0"
     inkscape:pageshadow="2"
     inkscape:zoom="0.90509668"
     inkscape:cx="203.2932"
     inkscape:cy="130.37281"
     inkscape:document-units="mm"
     inkscape:current-layer="layer1"
     inkscape:document-rotation="0"
     showgrid="false"
     inkscape:snap-global="true"
     inkscape:snap-bbox="true"
     inkscape:bbox-paths="true"
     inkscape:bbox-nodes="true"
     inkscape:snap-bbox-edge-midpoints="true"
     inkscape:snap-bbox-midpoints="true"
     inkscape:object-paths="true"
     inkscape:object-nodes="true"
     inkscape:snap-intersection-paths="true"
     inkscape:snap-smooth-nodes="true"
     inkscape:snap-midpoints="true"
     inkscape:window-width="1328"
     inkscape:window-height="739"
     inkscape:window-x="0"
     inkscape:window-y="0"
     inkscape:window-maximized="1"
     units="px"
     inkscape:pagecheckerboard="0"
     width="400px" />
  <metadata
     id="metadata5">
    <rdf:RDF>
      <cc:Work
         rdf:about="">
        <dc:format>image/svg+xml</dc:format>
        <dc:type
           rdf:resource="http://purl.org/dc/dcmitype/StillImage" />
      </cc:Work>
    </rdf:RDF>
  </metadata>
  <g
     inkscape:label="Слой 1"
     inkscape:groupmode="layer"
     id="layer1">
    <text
       style="font-variant:normal;font-weight:normal;font-stretch:normal;font-size:7.19141px;font-family:Impact;-inkscape-font-specification:Impact;writing-mode:lr-tb;fill:#ffeedb;fill-opacity:1;fill-rule:nonzero;stroke:none;stroke-width:0.352778"
       id="text1418"
       x="-629.2782"
       y="1611.6893"><tspan
         x="-519.88605 -516.276 -512.29193 -508.43741"
         sodipodi:role="line"
         id="tspan1416"
         style="fill:#ffeedb;fill-opacity:1;stroke-width:0.352778" /></text>
    <path
       id="path6185"
       style="font-size:25.8403px;line-height:1.25;font-family:'Bebas Neue Cyrillic';-inkscape-font-specification:'Bebas Neue Cyrillic';fill:#ffffff;fill-opacity:1;stroke-width:0.646007"
       d="m 26.458332,9.6123032 c -3.686064,2.1292948 -6.171125,5.8528758 -6.723105,10.0738098 -3.127427,-2.99071 -6.167064,-4.6452 -6.167064,-4.6452 -0.524508,1.47309 -0.792629,3.025188 -0.792715,4.58887 0.0014,6.319153 4.329951,11.815397 10.472745,13.29789 0.21487,1.608925 1.58693,2.810695 3.210139,2.81172 1.62375,-8.34e-4 2.996232,-1.20322 3.210658,-2.81275 6.142214,-1.482606 10.470422,-6.978244 10.472227,-13.29686 7.9e-5,-1.563652 -0.267867,-3.115749 -0.7922,-4.58887 0,0 -3.040152,1.65447 -6.16758,4.6452 -0.55198,-4.220934 -3.037041,-7.944515 -6.723105,-10.0738098 z m 0,7.4714398 c 2.91768,1.684381 4.715039,4.797454 4.714957,8.16643 -0.0019,2.040714 -0.665711,4.02575 -1.891874,5.65702 -0.574489,-1.018853 -1.653426,-1.649074 -2.823083,-1.649 -1.169503,5.08e-4 -2.248009,0.631102 -2.822051,1.65003 -1.226742,-1.631423 -1.890974,-3.616866 -1.892906,-5.65805 -8.2e-5,-3.368976 1.797277,-6.482049 4.714957,-8.16643 z m 9.097637,3.437 c 0.370224,1.039613 0.559517,2.134992 0.559655,3.23856 -9.78e-4,4.09199 -2.580799,7.739142 -6.438884,9.1028 0.01438,-0.120572 0.02197,-0.241856 0.02273,-0.36328 -1.07e-4,-0.49932 -0.115593,-0.991863 -0.337447,-1.43919 2.380222,-2.417701 3.777331,-5.633481 3.920176,-9.02322 1.304319,-0.98567 2.273763,-1.51567 2.273763,-1.51567 z m -18.102773,0.13074 c 0,0 0.926764,0.50678 2.184363,1.45056 0.1583,3.366756 1.553674,6.556629 3.918625,8.95811 -0.222134,0.447084 -0.337973,0.939443 -0.338482,1.43867 8.45e-4,0.119175 0.0083,0.238212 0.02222,0.35657 -3.801474,-1.359463 -6.338978,-4.960656 -6.340181,-8.9979 -7e-5,-1.092444 0.187125,-2.176817 0.553453,-3.20601 z m -5.575885,13.43329 c -5.6148338,0.980493 -8.8883203,2.472213 -8.8883462,4.0504 -3.473e-4,2.854847 10.5073572,5.169197 23.4693672,5.16919 12.962011,7e-6 23.469717,-2.314342 23.46937,-5.16919 9.9e-5,-1.578168 -3.27319,-3.069885 -8.887831,-4.0504 3.138193,0.782837 4.870039,1.79118 4.869987,2.83548 -1.7e-4,2.366026 -8.708937,4.284034 -19.451526,4.28398 -10.742386,-9e-6 -19.4508383,-1.917998 -19.4510078,-4.28398 -5.25e-5,-1.0443 1.7317942,-2.052643 4.8699868,-2.83548 z m 5.799127,0 c -3.381411,0.59044 -5.35307,1.488726 -5.353677,2.43913 -0.002,1.719731 6.327386,3.114065 14.135571,3.11402 7.807983,-1.7e-5 14.137013,-1.394333 14.135055,-3.11402 -4.82e-4,-0.950384 -1.971944,-1.848667 -5.353161,-2.43913 1.889897,0.471376 2.933134,1.078538 2.933671,1.70739 -3.8e-5,1.425049 -5.245342,2.580259 -11.715565,2.5802 -6.47002,-4e-6 -11.715008,-1.155196 -11.715046,-2.5802 3.93e-4,-0.628837 1.043443,-1.235997 2.933152,-1.70739 z"
       sodipodi:nodetypes="ccccccccccccccccccsccccccsccccccsccccccccccccccccccc" />
  </g>
</svg>
